<?xml version="1.0" encoding="utf-8"?>
<!-- Generator: Adobe Illustrator 16.0.0, SVG Export Plug-In . SVG Version: 6.00 Build 0)  -->
<!DOCTYPE svg PUBLIC "-//W3C//DTD SVG 1.1//EN" "http://www.w3.org/Graphics/SVG/1.1/DTD/svg11.dtd">
<svg version="1.1" id="Calque_1" xmlns="http://www.w3.org/2000/svg" xmlns:xlink="http://www.w3.org/1999/xlink" x="0px" y="0px"
	 width="17px" height="17px" viewBox="0 0 17 17" enable-background="new 0 0 17 17" xml:space="preserve">
<path fill="#FFFFFF" d="M13.137,8.48c0-0.002-0.002-0.005-0.002-0.007c0-0.003,0.002-0.005,0.002-0.008
	c0-0.104-0.032-0.204-0.068-0.301c-0.005-0.013-0.003-0.027-0.009-0.04c-0.055-0.132-0.134-0.255-0.246-0.354L5.502,1.323
	c-0.374-0.327-0.984-0.337-1.34-0.024C3.973,1.465,3.864,1.703,3.864,1.953c0,0.262,0.119,0.516,0.325,0.696l6.613,5.832
	l-6.494,5.726c-0.205,0.179-0.322,0.431-0.323,0.689c-0.001,0.247,0.106,0.484,0.294,0.651c0.172,0.152,0.4,0.236,0.642,0.236
	c0.256,0,0.501-0.093,0.689-0.26l7.206-6.353c0.11-0.098,0.189-0.218,0.244-0.347c0.011-0.025,0.009-0.054,0.018-0.08
	C13.105,8.658,13.137,8.571,13.137,8.48z"/>
</svg>
