<svg version="1.0" id="Calque_1" xmlns="http://www.w3.org/2000/svg" xmlns:xlink="http://www.w3.org/1999/xlink" x="0px" y="0px"
     viewBox="0 0 688 102" enable-background="new 0 0 688 102" xml:space="preserve">
    <title>Euronews, international news</title>
    <title lang="ar">يورونيوز، أخبار دولية</title>
    <title lang="de">Euronews, internationale Nachrichten</title>
    <title lang="es">Euronews, noticias internacionales</title>
    <title lang="fr">Euronews, actualités internationales</title>
    <title lang="el">Euronews, ΔΙΕΘΝΗ ΝΕΑ</title>
    <title lang="hu">Euronews, Nemzetközi hírek</title>
    <title lang="it">Euronews, Notizie internazionali</title>
    <title lang="fa">اخبار بین‌المللی</title>
    <title lang="pt">Euronews, Notícias internacionais</title>
    <title lang="ru">Международные новости</title>
    <title lang="tr">Euronews, DÜNYA</title>
    <title lang="uk">Euronews, міжнародні новини</title>
<g>
  <defs>
    <rect id="SVGID_1_" x="-83" y="-243.28" width="841.89" height="595.28"/>
  </defs>
  <clipPath id="SVGID_2_">
    <use xlink:href="#SVGID_1_"  overflow="visible"/>
  </clipPath>
  <path clip-path="url(#SVGID_2_)" fill="#FFFFFF" d="M71.982,70.066c-5.544,7.928-14.451,12.665-23.894,12.665
		c-13.74,0-25.847-10.069-28.784-23.939l-0.107-0.503h50.93h14.242h1.991c0.402-2.726,0.288-5.7,0.288-5.7l-0.002,0.005
		c0-0.085,0.006-0.175,0.006-0.262c0-21.918-17.301-39.753-38.564-39.753c-21.258,0-38.557,17.835-38.557,39.753
		c0,21.927,17.299,39.759,38.557,39.759c14.483,0,27.62-8.259,34.289-21.554L83.33,68.6H72.941
		C72.579,69.193,72.232,69.709,71.982,70.066 M18.861,48.46c1.894-15.123,14.458-26.521,29.227-26.521
		c14.774,0,27.34,11.398,29.226,26.521l0.06,0.463H18.805L18.861,48.46z"/>
  <path clip-path="url(#SVGID_2_)" fill="#FFFFFF" d="M129.906,92.111c-4.278,0-8.372-0.766-12.166-2.276
		c-3.766-1.504-7.096-3.683-9.902-6.475c-2.863-2.84-5.092-6.22-6.624-10.043c-1.589-3.992-2.229-8.344-2.208-12.94L99.005,14.12
		h8.922l-0.001,45.505c-0.013,3.559,0.421,6.889,1.591,9.898c1.109,2.864,2.718,5.398,4.783,7.531
		c2.008,2.072,4.375,3.686,7.034,4.795c2.698,1.125,5.577,1.696,8.553,1.696c3.044-0.003,5.934-0.576,8.628-1.704
		c2.672-1.119,5.048-2.738,7.061-4.812c2.066-2.122,3.687-4.653,4.819-7.525c1.193-3.025,1.921-6.354,1.928-9.888V14.12h8.904
		l-0.001,46.264c-0.015,4.608-0.953,8.955-2.562,12.919c-1.555,3.825-3.796,7.202-6.663,10.041
		c-2.831,2.797-6.168,4.975-9.923,6.476c-3.794,1.516-7.889,2.286-12.17,2.292H129.906z"/>
  <path clip-path="url(#SVGID_2_)" fill="#FFFFFF" d="M173.967,90.043V46.256c0.004-3.256,0.39-6.443,1.149-9.473
		c1.044-4.201,2.775-7.948,5.146-11.136c2.948-3.968,6.891-7.085,11.718-9.261c5.592-2.513,12.441-3.785,20.357-3.785h1.497v9.517
		l-1.459-0.001c-5.774,0-10.726,0.76-14.749,2.255c-3.539,1.313-6.451,3.22-8.653,5.667c-1.917,2.136-3.344,4.729-4.239,7.701
		c-0.766,2.547-1.16,5.415-1.17,8.524v43.778H173.967z"/>
  <path clip-path="url(#SVGID_2_)" fill="#FFFFFF" d="M357.228,90.041V50.04c0.013-3.098-0.316-5.976-1.315-8.554
		c-0.923-2.395-2.255-4.503-3.96-6.27c-1.637-1.696-3.567-3.016-5.734-3.923c-2.221-0.928-4.597-1.399-7.06-1.399
		c-2.506,0.002-4.905,0.475-7.127,1.407c-2.18,0.917-4.121,2.245-5.769,3.946c-1.709,1.762-3.054,3.874-3.999,6.278
		c-1.019,2.595-1.672,5.469-1.676,8.544l-0.001,39.973h-17.655L302.93,49.27c0.017-5.266,1.09-10.247,2.935-14.806
		c1.806-4.453,4.41-8.388,7.743-11.699c3.295-3.267,7.176-5.811,11.534-7.56c4.376-1.752,9.082-2.645,13.99-2.653
		c4.916,0,9.625,0.887,13.998,2.636c4.38,1.753,8.259,4.3,11.529,7.568c3.329,3.315,5.92,7.255,7.7,11.71
		c1.824,4.597,2.562,9.588,2.539,14.84v40.735H357.228z"/>
  <path clip-path="url(#SVGID_2_)" fill="#FFFFFF" d="M422.08,92.063c-21.264,0-38.554-17.831-38.554-39.75
		c0-21.926,17.29-39.762,38.554-39.762c21.257,0,38.55,17.836,38.55,39.762c0,2.025-0.152,4.064-0.45,6.067l-0.091,0.6h-60.204
		l0.257,0.816c3.123,9.763,11.942,16.325,21.938,16.325c5.432,0,10.547-1.922,14.761-5.55c0,0,1.125-0.969,1.267-1.104h18.765
		l-0.529,1.056C449.684,83.807,436.552,92.063,422.08,92.063 M422.08,28.493c-9.996,0-18.815,6.56-21.938,16.329l-0.257,0.815
		h44.379l-0.257-0.815C440.887,35.053,432.077,28.493,422.08,28.493"/>
  <path clip-path="url(#SVGID_2_)" fill="#FFFFFF" d="M466.641,14.572V14.12h19.123c2.337,18.309,8.338,47.339,13.526,60.463
		c5.491-13.124,11.898-42.155,14.241-60.463h15.863c2.441,18.309,8.749,46.123,14.341,60.463
		c5.188-14.341,11.086-42.155,13.528-60.463h19.019v0.453c-4.372,28.584-12.713,57.975-19.833,75.469h-23.798
		c-3.966-9.561-8.748-24.207-11.189-37.328c-2.34,13.121-7.525,28.582-11.086,37.328h-23.801
		C478.229,70.922,469.163,38.853,466.641,14.572"/>
  <path clip-path="url(#SVGID_2_)" fill="#FFFFFF" d="M584.141,86.71v-14.5h0.798c4.3,1.302,13.601,3.104,20.3,3.104h3.902
		c6.195,0,10.898-1.902,10.898-8.202c0-4.699-4.101-6.596-8.601-7.798l-11.7-3.098c-8.598-2.2-15.598-8.203-15.598-21.102
		c0-15.196,12.5-21.497,27.695-21.497h3.902c4.697,0,14.099,1.203,18.397,2.801v14.399h-0.799
		c-3.901-1.102-13.298-2.299-17.599-2.299h-3.5c-5.497,0-10.2,1.096-10.2,6.596c0,4.303,3.2,6,7.103,7l11.699,3.199
		c11.294,3,17.193,9.7,17.193,21.798c0,16.8-12.095,23.098-28.893,23.098h-3.902C599.336,90.21,589.539,88.612,584.141,86.71"/>
  <path clip-path="url(#SVGID_2_)" fill="#FFFFFF" d="M680.868,74.2c0,8.85-7.174,16.023-16.023,16.023
		c-8.849,0-16.022-7.174-16.022-16.023c0-8.849,7.174-16.022,16.022-16.022C673.694,58.178,680.868,65.352,680.868,74.2"/>
  <path clip-path="url(#SVGID_2_)" fill="#FFFFFF" d="M255.44,12.732c-21.424,0-38.792,17.799-38.792,39.756
		s17.368,39.756,38.792,39.756c21.424,0,38.792-17.8,38.792-39.756S276.864,12.732,255.44,12.732 M255.44,81.401
		c-14.946,0-27.106-12.971-27.106-28.914s12.16-28.914,27.106-28.914c14.946,0,27.107,12.971,27.107,28.914
		S270.386,81.401,255.44,81.401"/>
</g>
</svg>
