<?xml version="1.0" encoding="utf-8"?>
<svg version="1.1" id="Calque_1" xmlns="http://www.w3.org/2000/svg" xmlns:xlink="http://www.w3.org/1999/xlink" x="0px" y="0px"
	 width="32px" height="32px" viewBox="0 0 32 32" style="enable-background:new 0 0 32 32;" xml:space="preserve">
<g id="XMLID_496_">
	<path id="XMLID_497_" d="M3,15.6l5.7,2.1l2.2,7.1c0.1,0.5,0.7,0.6,1.1,0.3l3.2-2.6c0.3-0.3,0.8-0.3,1.2,0l5.7,4.2
		c0.4,0.3,1,0.1,1.1-0.4L27.4,6c0.1-0.5-0.4-1-0.9-0.8L3,14.3C2.5,14.5,2.5,15.3,3,15.6z M10.6,16.6l11.2-6.9C22,9.6,22.2,9.8,22,10
		l-9.2,8.6c-0.3,0.3-0.5,0.7-0.6,1.1L11.9,22c0,0.3-0.5,0.3-0.6,0l-1.2-4.2C10,17.3,10.2,16.8,10.6,16.6z"/>
</g>
</svg>
