<?xml version="1.0" encoding="utf-8"?>
<!-- Generator: Adobe Illustrator 16.0.0, SVG Export Plug-In . SVG Version: 6.00 Build 0)  -->
<!DOCTYPE svg PUBLIC "-//W3C//DTD SVG 1.1//EN" "http://www.w3.org/Graphics/SVG/1.1/DTD/svg11.dtd">
<svg version="1.1" id="Calque_1" xmlns="http://www.w3.org/2000/svg" xmlns:xlink="http://www.w3.org/1999/xlink" x="0px" y="0px"
	 width="32px" height="32px" viewBox="0 0 32 32" enable-background="new 0 0 32 32" xml:space="preserve">
<path fill="#FFFFFF" d="M26.238,9.646c-0.749,0.33-1.564,0.558-2.417,0.662c0.877-0.523,1.537-1.349,1.854-2.323
	c-0.827,0.486-1.729,0.831-2.672,1.017c-1.59-1.693-4.249-1.778-5.94-0.189c-0.848,0.794-1.328,1.906-1.326,3.068
	c0,0.325,0.037,0.647,0.106,0.952c-3.379-0.168-6.528-1.766-8.662-4.389c-0.377,0.639-0.574,1.371-0.573,2.114
	c0,1.457,0.743,2.739,1.874,3.501c-0.666-0.023-1.317-0.205-1.9-0.527v0.051c0,2.032,1.442,3.733,3.372,4.122
	c-0.621,0.168-1.271,0.191-1.903,0.072c0.553,1.714,2.132,2.884,3.93,2.917c-1.764,1.381-4.001,2.008-6.224,1.738
	c1.924,1.234,4.16,1.888,6.444,1.886c7.731,0,11.957-6.403,11.957-11.959c0-0.178-0.002-0.36-0.013-0.543
	c0.822-0.593,1.533-1.329,2.098-2.172L26.238,9.646z"/>
</svg>
