<?xml version="1.0" encoding="utf-8"?>
<!-- Generator: Adobe Illustrator 16.0.0, SVG Export Plug-In . SVG Version: 6.00 Build 0)  -->
<!DOCTYPE svg PUBLIC "-//W3C//DTD SVG 1.1//EN" "http://www.w3.org/Graphics/SVG/1.1/DTD/svg11.dtd">
<svg version="1.1" id="Calque_1" xmlns="http://www.w3.org/2000/svg" xmlns:xlink="http://www.w3.org/1999/xlink" x="0px" y="0px"
	 width="32px" height="32px" viewBox="0 0 32 32" enable-background="new 0 0 32 32" xml:space="preserve">
<path fill="#FEFEFE" d="M12.903,19.487c0-2.263,0.003-4.526,0-6.79c0-0.171,0.036-0.23,0.219-0.229c1.247,0.008,2.494,0.008,3.742,0
	c0.171,0,0.218,0.051,0.215,0.218c-0.009,0.52-0.003,1.04,0,1.563c0,0.047-0.028,0.116,0.037,0.133
	c0.065,0.018,0.078-0.055,0.104-0.096c0.753-1.218,1.871-1.89,3.264-2.089c1.148-0.164,2.286-0.063,3.366,0.395
	c1.099,0.463,1.783,1.31,2.184,2.413c0.288,0.807,0.428,1.642,0.461,2.495c0.104,2.526,0.024,5.051,0.047,7.58
	c0.002,0.427-0.003,0.85,0.002,1.273c0,0.125-0.036,0.162-0.162,0.162c-1.352-0.003-2.703-0.006-4.053,0
	c-0.168,0.003-0.162-0.081-0.162-0.2v-6.924c0-0.696-0.023-1.393-0.252-2.059c-0.292-0.864-0.893-1.324-1.805-1.374
	c-0.698-0.035-1.366,0.055-1.921,0.529c-0.507,0.434-0.712,1.025-0.831,1.656c-0.088,0.464-0.113,0.931-0.113,1.4
	c0,2.251-0.002,4.502,0.003,6.754c0,0.183-0.054,0.223-0.225,0.223c-1.3-0.009-2.599-0.009-3.898,0
	c-0.171,0-0.225-0.043-0.225-0.223C12.906,24.03,12.904,21.759,12.903,19.487L12.903,19.487z M5.796,19.473
	c0-2.257,0-4.511-0.005-6.768c0-0.184,0.045-0.238,0.232-0.238c1.298,0.011,2.6,0.009,3.896,0.003c0.172,0,0.229,0.036,0.229,0.221
	c-0.006,4.536-0.006,9.074,0,13.613c0,0.169-0.039,0.218-0.212,0.218c-1.311-0.009-2.622-0.009-3.937,0
	c-0.177,0-0.207-0.061-0.207-0.221c0.004-2.273,0.003-4.551,0.003-6.825V19.473z M10.52,8.028c-0.012,1.396-1.175,2.547-2.56,2.524
	c-1.399-0.018-2.525-1.158-2.511-2.548C5.465,6.601,6.6,5.468,7.984,5.479c1.399,0.009,2.547,1.163,2.538,2.549H10.52z"/>
</svg>
