<?xml version="1.0" encoding="utf-8"?>
<!DOCTYPE svg PUBLIC "-//W3C//DTD SVG 1.1//EN" "http://www.w3.org/Graphics/SVG/1.1/DTD/svg11.dtd">
<svg version="1.1" xmlns="http://www.w3.org/2000/svg" xmlns:xlink="http://www.w3.org/1999/xlink" x="0px" y="0px"
	 width="32px" height="32px" viewBox="0 0 124.382 206.781" enable-background="new 0 0 124.382 206.781"
	 xml:space="preserve">
<g display="none">
	
		<image display="inline" overflow="visible" width="265" height="237" xlink:href="9A42B96D.jpg"  transform="matrix(1 0 0 1 193 231)">
	</image>
</g>
<g>
	<path fill="#FFFFFF" d="M62.191,104.668c28.903,0,52.335-23.431,52.335-52.334C114.526,23.431,91.094,0,62.191,0
		C33.287,0,9.856,23.431,9.856,52.334C9.856,81.237,33.287,104.668,62.191,104.668z M62.191,26.587
		c14.22,0,25.748,11.528,25.748,25.747c0,14.22-11.528,25.747-25.748,25.747S36.444,66.554,36.444,52.334
		C36.444,38.115,47.971,26.587,62.191,26.587z M122.518,111.054c-2.955-5.936-11.139-10.874-22.015-2.304
		c-14.7,11.583-38.313,11.583-38.313,11.583s-23.612,0-38.313-11.583c-10.876-8.57-19.06-3.632-22.014,2.304
		c-5.151,10.348,0.669,15.35,13.803,23.781c11.218,7.202,26.632,9.892,36.586,10.898l-8.309,8.309
		c-11.704,11.703-23.001,23.001-30.84,30.84c-4.687,4.686-4.687,12.284,0,16.971l1.414,1.414c4.687,4.687,12.284,4.686,16.971,0
		l30.84-30.84c11.704,11.703,23.001,23.001,30.84,30.839c4.686,4.687,12.284,4.687,16.971,0l1.414-1.414
		c4.687-4.687,4.686-12.284,0-16.971l-30.84-30.84l-8.335-8.334c9.962-1.025,25.211-3.73,36.336-10.872
		C121.848,126.404,127.668,121.402,122.518,111.054z"/>
</g>
</svg>
