<?xml version="1.0" encoding="utf-8"?>
<!-- Generator: Adobe Illustrator 16.0.0, SVG Export Plug-In . SVG Version: 6.00 Build 0)  -->
<!DOCTYPE svg PUBLIC "-//W3C//DTD SVG 1.1//EN" "http://www.w3.org/Graphics/SVG/1.1/DTD/svg11.dtd">
<svg version="1.1" id="Calque_1" xmlns="http://www.w3.org/2000/svg" xmlns:xlink="http://www.w3.org/1999/xlink" x="0px" y="0px"
	 width="32px" height="32px" viewBox="0 0 32 32" enable-background="new 0 0 32 32" xml:space="preserve">
<path fill="#FEFEFE" d="M5.995,9.485c0.575,0,1.147-0.005,1.719,0c0.475,0.006,0.875,0.249,1.057,0.695
	c0.337,0.852,0.726,1.679,1.173,2.478c0.453,0.815,0.934,1.619,1.506,2.359c0.185,0.24,0.384,0.467,0.628,0.654
	c0.107,0.088,0.235,0.152,0.372,0.185c0.182,0.046,0.375-0.022,0.486-0.174c0.155-0.196,0.217-0.432,0.266-0.667
	c0.126-0.596,0.145-1.202,0.143-1.807c0-0.554-0.012-1.106-0.062-1.658c-0.024-0.247-0.075-0.49-0.147-0.725
	c-0.145-0.468-0.477-0.724-0.922-0.861c-0.11-0.036-0.228-0.06-0.341-0.078c-0.095-0.015-0.116-0.05-0.083-0.14
	c0.031-0.089,0.096-0.163,0.157-0.234c0.273-0.307,0.636-0.444,1.023-0.525c0.327-0.068,0.657-0.099,0.989-0.115
	c0.74-0.033,1.483-0.033,2.226,0c0.393,0.016,0.782,0.072,1.164,0.175c0.438,0.12,0.684,0.405,0.763,0.845
	c0.061,0.352,0.061,0.708,0.05,1.062c-0.02,0.602-0.05,1.204-0.06,1.807c-0.006,0.446-0.02,0.893-0.024,1.339
	c0,0.378,0.005,0.755,0.114,1.124c0.057,0.191,0.147,0.366,0.303,0.503c0.138,0.124,0.287,0.137,0.452,0.066
	c0.165-0.07,0.303-0.178,0.433-0.3c0.437-0.41,0.778-0.899,1.112-1.391c0.842-1.257,1.536-2.604,2.077-4.017
	c0.042-0.105,0.101-0.204,0.171-0.294c0.144-0.189,0.335-0.264,0.57-0.264c0.711,0,1.42-0.008,2.133-0.013
	c0.56,0,1.12,0.003,1.681-0.008c0.246-0.004,0.494-0.029,0.74,0.007c0.163,0.017,0.32,0.068,0.461,0.15
	c0.129,0.084,0.197,0.204,0.211,0.356c0.02,0.24-0.043,0.465-0.126,0.686c-0.201,0.531-0.491,1.019-0.798,1.495
	c-0.613,0.959-1.316,1.852-2.008,2.753c-0.318,0.413-0.645,0.819-0.915,1.265c-0.057,0.093-0.106,0.188-0.153,0.286
	c-0.171,0.356-0.131,0.691,0.101,1.011c0.249,0.342,0.561,0.624,0.867,0.911c0.814,0.756,1.616,1.523,2.3,2.405
	c0.24,0.308,0.453,0.635,0.623,0.985c0.082,0.151,0.121,0.319,0.116,0.489c-0.016,0.277-0.173,0.456-0.405,0.583
	c-0.246,0.131-0.515,0.202-0.794,0.207c-1.062,0.018-2.126-0.002-3.186,0.055c-0.911,0.046-1.619-0.321-2.254-0.91
	c-0.456-0.419-0.843-0.899-1.252-1.357c-0.256-0.283-0.515-0.569-0.821-0.805c-0.079-0.062-0.163-0.118-0.253-0.166
	c-0.349-0.186-0.687-0.115-0.941,0.192c-0.211,0.257-0.311,0.561-0.388,0.875c-0.096,0.405-0.113,0.82-0.135,1.232
	c-0.027,0.515-0.251,0.764-0.762,0.864c-0.07,0.013-0.142,0.02-0.214,0.02h-1.503c-0.746-0.007-1.488-0.129-2.197-0.36
	c-1.193-0.377-2.296-0.995-3.239-1.817c-0.687-0.592-1.274-1.274-1.826-1.99c-0.896-1.163-1.677-2.403-2.402-3.677
	c-0.877-1.542-1.676-3.126-2.395-4.748c-0.062-0.133-0.1-0.275-0.114-0.42C3.44,9.865,3.517,9.72,3.717,9.628
	c0.192-0.088,0.392-0.121,0.6-0.121c0.561-0.002,1.121,0,1.681,0V9.479L5.995,9.485z"/>
</svg>
